HIERARCHY
ROOT Hips
{
	OFFSET 0.000000 0.000000 0.000000 
	CHANNELS 6 Xposition Yposition Zposition Yrotation Xrotation Zrotation
	JOINT Spine
	{
		OFFSET 0.000000 0.072080 0.012321 
		CHANNELS 3 Xrotation Yrotation Zrotation
		JOINT Spine1
		{
			OFFSET 0.000000 0.126984 -0.001294 
			CHANNELS 3 Xrotation Yrotation Zrotation
			JOINT Spine2
			{
				OFFSET 0.000000 0.106559 -0.010096 
				CHANNELS 3 Xrotation Yrotation Zrotation
				JOINT Neck
				{
					OFFSET 0.000000 0.108417 -0.034017 
					CHANNELS 3 Xrotation Yrotation Zrotation
					JOINT Neck1
					{
						OFFSET 0.000000 0.033906 0.007241 
						CHANNELS 3 Xrotation Yrotation Zrotation
						JOINT Head
						{
							OFFSET 0.000000 0.031458 0.006707 
							CHANNELS 3 Xrotation Yrotation Zrotation
							End Site
							{
								OFFSET 0.000000 0.179920 0.000962 
							}
						}
					}
				}
				JOINT LeftShoulder
				{
					OFFSET 0.048002 0.079586 -0.029634 
					CHANNELS 3 Zrotation Xrotation Yrotation
					JOINT LeftArm
					{
						OFFSET 0.096243 -0.008695 -0.014012 
						CHANNELS 3 Zrotation Xrotation Yrotation
						JOINT LeftForeArm
						{
							OFFSET 0.216305 0.000000 0.000000 
							CHANNELS 3 Xrotation Zrotation Yrotation
							JOINT LeftHand
							{
								OFFSET 0.217764 0.000000 0.000000 
								CHANNELS 3 Zrotation Yrotation Xrotation
								JOINT LeftHandThumb1
								{
									OFFSET 0.018582 -0.007835 0.020476 
									CHANNELS 3 Zrotation Xrotation Yrotation
									JOINT LeftHandThumb2
									{
										OFFSET 0.026269 -0.007835 0.022186 
										CHANNELS 3 Zrotation Xrotation Yrotation
										JOINT LeftHandThumb3
										{
											OFFSET 0.035170 -0.010504 0.017018 
											CHANNELS 3 Zrotation Xrotation Yrotation
											End Site
											{
												OFFSET 0.020312 -0.007813 0.007813 
											}
										}
									}
								}
								JOINT LeftHandMiddle1
								{
									OFFSET 0.081749 0.004803 0.003358 
									CHANNELS 3 Zrotation Xrotation Yrotation
									JOINT LeftHandMiddle2
									{
										OFFSET 0.045251 0.000000 0.000000 
										CHANNELS 3 Zrotation Xrotation Yrotation
										JOINT LeftHandMiddle3
										{
											OFFSET 0.029009 0.000000 0.000000 
											CHANNELS 3 Zrotation Xrotation Yrotation
											End Site
											{
												OFFSET 0.017969 0.000000 0.000000 
											}
										}
									}
								}
								JOINT LeftHandIndex1
								{
									OFFSET 0.081207 0.004803 0.021137 
									CHANNELS 3 Zrotation Xrotation Yrotation
									JOINT LeftHandIndex2
									{
										OFFSET 0.043354 0.000000 0.000000 
										CHANNELS 3 Zrotation Xrotation Yrotation
										JOINT LeftHandIndex3
										{
											OFFSET 0.026493 0.000000 0.000000 
											CHANNELS 3 Zrotation Xrotation Yrotation
											End Site
											{
												OFFSET 0.019531 0.000000 0.000000 
											}
										}
									}
								}
								JOINT LeftHandRing1
								{
									OFFSET 0.080666 0.002509 -0.014652 
									CHANNELS 3 Zrotation Xrotation Yrotation
									JOINT LeftHandRing2
									{
										OFFSET 0.042541 0.000000 0.000000 
										CHANNELS 3 Zrotation Xrotation Yrotation
										JOINT LeftHandRing3
										{
											OFFSET 0.029009 0.000000 0.000000 
											CHANNELS 3 Zrotation Xrotation Yrotation
											End Site
											{
												OFFSET 0.015625 0.000000 0.000000 
											}
										}
									}
								}
								JOINT LeftHandPinky1
								{
									OFFSET 0.078227 -0.000612 -0.030993 
									CHANNELS 3 Zrotation Xrotation Yrotation
									JOINT LeftHandPinky2
									{
										OFFSET 0.028721 0.000000 0.000000 
										CHANNELS 3 Zrotation Xrotation Yrotation
										JOINT LeftHandPinky3
										{
											OFFSET 0.021963 0.000000 0.000000 
											CHANNELS 3 Zrotation Xrotation Yrotation
											End Site
											{
												OFFSET 0.022656 0.000000 0.000000 
											}
										}
									}
								}
							}
						}
					}
				}
				JOINT RightShoulder
				{
					OFFSET -0.047970 0.079586 -0.029634 
					CHANNELS 3 Zrotation Xrotation Yrotation
					JOINT RightArm
					{
						OFFSET -0.096274 -0.008695 -0.014012 
						CHANNELS 3 Zrotation Xrotation Yrotation
						JOINT RightForeArm
						{
							OFFSET -0.216305 0.000000 0.000000 
							CHANNELS 3 Xrotation Zrotation Yrotation
							JOINT RightHand
							{
								OFFSET -0.217764 0.000000 0.000000 
								CHANNELS 3 Zrotation Yrotation Xrotation
								JOINT RightHandThumb1
								{
									OFFSET -0.019670 -0.007318 0.019638 
									CHANNELS 3 Zrotation Xrotation Yrotation
									JOINT RightHandThumb2
									{
										OFFSET -0.025498 -0.008492 0.023179 
										CHANNELS 3 Zrotation Xrotation Yrotation
										JOINT RightHandThumb3
										{
											OFFSET -0.034504 -0.010705 0.016680 
											CHANNELS 3 Zrotation Xrotation Yrotation
											End Site
											{
												OFFSET -0.020312 -0.007813 0.007813 
											}
										}
									}
								}
								JOINT RightHandIndex1
								{
									OFFSET -0.081770 0.003825 0.021187 
									CHANNELS 3 Zrotation Xrotation Yrotation
									JOINT RightHandIndex2
									{
										OFFSET -0.042006 0.000000 0.000000 
										CHANNELS 3 Zrotation Xrotation Yrotation
										JOINT RightHandIndex3
										{
											OFFSET -0.026449 0.000000 0.000000 
											CHANNELS 3 Zrotation Xrotation Yrotation
											End Site
											{
												OFFSET -0.020312 0.000000 0.000000 
											}
										}
									}
								}
								JOINT RightHandMiddle1
								{
									OFFSET -0.084059 0.003825 0.003342 
									CHANNELS 3 Zrotation Xrotation Yrotation
									JOINT RightHandMiddle2
									{
										OFFSET -0.043881 0.000000 0.000000 
										CHANNELS 3 Zrotation Xrotation Yrotation
										JOINT RightHandMiddle3
										{
											OFFSET -0.029191 0.000000 0.000000 
											CHANNELS 3 Zrotation Xrotation Yrotation
											End Site
											{
												OFFSET -0.017969 0.000000 0.000000 
											}
										}
									}
								}
								JOINT RightHandRing1
								{
									OFFSET -0.081798 0.003030 -0.015127 
									CHANNELS 3 Zrotation Xrotation Yrotation
									JOINT RightHandRing2
									{
										OFFSET -0.042198 0.000000 0.000000 
										CHANNELS 3 Zrotation Xrotation Yrotation
										JOINT RightHandRing3
										{
											OFFSET -0.026497 0.000000 0.000000 
											CHANNELS 3 Zrotation Xrotation Yrotation
											End Site
											{
												OFFSET -0.017188 0.000000 0.000000 
											}
										}
									}
								}
								JOINT RightHandPinky1
								{
									OFFSET -0.077902 -0.000930 -0.030891 
									CHANNELS 3 Zrotation Xrotation Yrotation
									JOINT RightHandPinky2
									{
										OFFSET -0.028538 0.000000 0.000000 
										CHANNELS 3 Zrotation Xrotation Yrotation
										JOINT RightHandPinky3
										{
											OFFSET -0.021734 0.000000 0.000000 
											CHANNELS 3 Zrotation Xrotation Yrotation
											End Site
											{
												OFFSET -0.022656 0.000000 0.000000 
											}
										}
									}
								}
							}
						}
					}
				}
			}
		}
	}
	JOINT LeftUpLeg
	{
		OFFSET 0.075264 -0.025573 0.000000 
		CHANNELS 3 Xrotation Yrotation Zrotation
		JOINT LeftLeg
		{
			OFFSET 0.000000 -0.326016 -0.013516 
			CHANNELS 3 Xrotation Yrotation Zrotation
			JOINT LeftFoot
			{
				OFFSET 0.000098 -0.306172 -0.006623 
				CHANNELS 3 Xrotation Yrotation Zrotation
				JOINT LeftToeBase
				{
					OFFSET -0.001432 -0.095259 0.064705 
					CHANNELS 3 Xrotation Yrotation Zrotation
					End Site
					{
						OFFSET 0.000000 0.000000 0.079438 
					}
				}
			}
		}
	}
	JOINT RightUpLeg
	{
		OFFSET -0.075264 -0.025573 0.000000 
		CHANNELS 3 Xrotation Yrotation Zrotation
		JOINT RightLeg
		{
			OFFSET 0.000000 -0.326016 -0.013516 
			CHANNELS 3 Xrotation Yrotation Zrotation
			JOINT RightFoot
			{
				OFFSET 0.000098 -0.306172 -0.006623 
				CHANNELS 3 Xrotation Yrotation Zrotation
				JOINT RightToeBase
				{
					OFFSET -0.001432 -0.095259 0.064705 
					CHANNELS 3 Xrotation Yrotation Zrotation
					End Site
					{
						OFFSET 0.000025 0.000000 0.079438 
					}
				}
			}
		}
	}
}
MOTION
Frames: 5
Frame Time: 0.033333
0.000158 0.743454 -0.000267 1.923100 1.939000 0.263800 6.166500 -1.303500 -0.312800 2.498200 -2.419500 1.232400 2.471500 -2.375300 1.342100 -0.476800 2.129200 -0.237500 -0.000000 0.000000 -0.000000 -3.193100 4.531000 -1.876700 -14.208200 2.609800 -8.800000 -58.263199 25.398600 -5.530400 0.000000 0.000000 -11.061400 -13.400800 6.912700 8.145600 4.641700 10.699200 10.557100 5.557300 1.123800 -3.593000 25.245100 -1.098300 -9.595500 -23.586800 0.001600 -0.568600 -11.961100 0.000300 -0.003100 -13.961000 0.000400 -0.003600 -13.766800 0.000500 -8.648300 -15.174900 0.000500 -0.003900 -15.174900 0.000500 -0.003900 -24.529699 0.001700 1.948800 -19.420601 0.000900 -0.005000 -21.417101 0.001000 -0.005500 -31.163300 -0.302100 3.476500 -17.788900 0.000700 -0.004600 -17.788900 0.000700 -0.004600 15.681900 1.651200 3.831700 46.539902 23.005501 17.385000 0.000000 0.000000 23.198799 8.345500 -1.352800 3.392400 1.885200 18.796000 -12.609500 -5.169600 -1.037000 -5.132600 -16.906099 -17.733900 -0.574800 17.732100 0.000400 8.445200 23.812599 0.000700 0.003200 10.514000 0.000100 0.001400 19.580000 0.000600 4.006100 35.399502 0.001500 0.004600 20.582300 0.000500 0.002800 21.888000 0.000700 1.777800 47.481899 0.002600 0.005800 23.166000 0.000600 0.003100 26.911100 -0.243000 1.431000 28.691900 0.001000 0.003800 15.929900 0.000300 0.002200 -30.646099 9.081400 4.960300 60.757599 -4.731100 -0.413300 -1.425300 0.072100 -1.639800 -8.204100 0.000000 -0.000000 -13.799800 -7.337800 1.081000 22.054100 2.758400 -3.660300 -11.105700 -0.014700 0.288100 -4.971800 0.000000 -0.000000 
0.001353 0.748165 0.037253 1.395300 2.536000 0.456000 5.775200 -0.371500 -0.569300 2.234200 -1.840800 0.676500 2.217200 -1.797400 0.769900 -0.432900 1.886100 -0.364900 -0.000000 0.000000 -0.000000 -2.834800 3.317000 -1.875500 -14.054100 2.391100 -7.850600 -61.410702 23.683800 -0.413600 -0.000000 0.000000 -11.041800 -16.593201 5.767500 7.943400 4.641700 10.699300 10.557100 5.909200 0.441000 -4.031800 25.182600 -1.007300 -9.288400 -22.802299 0.001500 -0.722500 -11.964900 0.000300 -0.003100 -13.964800 0.000400 -0.003600 -12.701900 0.000400 -9.247700 -15.187600 0.000500 -0.003900 -15.187600 0.000500 -0.003900 -23.488400 0.001600 1.984300 -19.420700 0.000900 -0.005000 -21.417101 0.001000 -0.005500 -30.630400 -0.322900 3.713600 -17.812700 0.000700 -0.004600 -17.812700 0.000700 -0.004600 15.420900 1.703800 4.146000 43.894001 23.704300 19.960501 -0.000000 -0.000000 25.999001 10.592300 -4.113600 3.183200 1.885200 18.796000 -12.609500 -5.230200 -1.153600 -4.885300 -16.907000 -17.735701 -0.569200 18.107100 0.000400 8.500900 23.817900 0.000700 0.003200 10.519300 0.000100 0.001400 20.026600 0.000600 4.141900 35.441502 0.001500 0.004600 20.623899 0.000500 0.002800 22.129801 0.000700 1.911200 47.521801 0.002600 0.005800 23.205500 0.000600 0.003100 27.134899 -0.274500 1.615800 28.746500 0.001000 0.003800 15.980900 0.000300 0.002200 -32.496601 9.057800 3.972600 46.878502 -2.463500 -1.983600 -1.820600 0.184900 -3.361300 -6.394400 0.000000 -0.000000 -7.622100 -8.090100 1.549800 15.336000 4.239300 -4.459400 -11.888200 -0.096800 0.923200 -4.671600 0.000000 -0.000000 
0.002934 0.746960 0.074795 0.769600 3.182400 0.156400 5.337200 0.639500 0.022800 2.013600 -1.243900 -0.033900 1.997100 -1.211900 0.044600 -0.524800 1.552800 -0.248600 -0.000000 0.000000 -0.000000 -2.830600 2.299500 -1.873600 -13.969300 2.196500 -6.970100 -64.177803 21.556999 4.242600 -0.000000 0.000000 -10.936200 -18.192200 4.148600 8.170400 4.641700 10.699300 10.557100 5.886900 0.497500 -4.201100 25.171900 -1.008200 -9.291200 -22.738100 0.001500 -0.735100 -11.982300 0.000300 -0.003100 -13.982100 0.000400 -0.003600 -12.558700 0.000400 -9.153500 -15.200900 0.000500 -0.003900 -15.200900 0.000500 -0.003900 -23.432699 0.001600 1.995500 -19.414400 0.000900 -0.005000 -21.410700 0.001000 -0.005500 -30.607700 -0.311800 3.587100 -17.801201 0.000700 -0.004600 -17.801201 0.000700 -0.004600 14.665800 1.726900 4.497100 40.991798 23.912001 22.343800 -0.000000 0.000000 30.315100 12.875400 -7.087800 3.494300 1.885200 18.796101 -12.609500 -5.153600 -0.764700 -3.838100 -16.917101 -17.755899 -0.503100 19.459400 0.000500 8.679900 23.738001 0.000700 0.003200 10.439400 0.000100 0.001400 20.915701 0.000600 4.278500 35.476898 0.001500 0.004600 20.658899 0.000500 0.002800 23.039700 0.000800 2.240900 47.574299 0.002600 0.005800 23.256701 0.000600 0.003100 27.901899 -0.411200 2.416400 28.763500 0.001000 0.003800 15.981000 0.000300 0.002200 -31.498501 8.488800 2.891000 27.259800 0.729500 -2.583100 0.911700 0.142400 -4.427300 -5.376300 0.000000 -0.000000 -3.872400 -9.681500 1.692600 13.283800 6.302100 -4.273700 -13.914500 0.010600 0.070700 -4.486900 0.000000 -0.000000 
0.004740 0.739355 0.113565 -0.403900 3.630100 -1.301100 4.786600 2.242800 2.222000 1.950800 -0.652200 -1.037300 1.912900 -0.645000 -0.974600 -0.628600 1.109000 0.338400 -0.000000 0.000000 -0.000000 -3.206100 1.506900 -2.195000 -13.830600 2.083900 -6.495700 -66.663200 19.121700 8.310600 0.000000 0.000000 -10.450600 -18.581900 2.414400 7.822000 4.641700 10.699300 10.557100 5.837600 0.791900 -4.629600 25.149300 -1.026400 -9.352500 -22.623800 0.001500 -0.709000 -11.966300 0.000300 -0.003100 -13.966200 0.000400 -0.003600 -12.395500 0.000400 -9.046200 -15.200700 0.000500 -0.003900 -15.200700 0.000500 -0.004000 -23.417400 0.001600 2.033500 -19.396601 0.000800 -0.005000 -21.392799 0.001000 -0.005500 -30.618900 -0.305300 3.512100 -17.763300 0.000700 -0.004600 -17.763300 0.000700 -0.004600 13.821300 1.761500 4.958100 37.715801 23.383801 24.857500 0.000000 0.000000 33.209000 14.413700 -7.193700 4.143500 1.885200 18.796000 -12.609500 -5.165500 -0.417000 -2.112500 -16.930000 -17.781799 -0.418400 20.730900 0.000600 8.879600 23.757799 0.000700 0.003200 10.459100 0.000100 0.001400 21.514000 0.000700 4.346500 35.494499 0.001500 0.004600 20.676300 0.000500 0.002800 23.852200 0.000800 2.569300 47.601898 0.002600 0.005900 23.282801 0.000600 0.003100 28.613199 -0.565100 3.317700 28.784901 0.001000 0.003800 15.981200 0.000300 0.002200 -33.841099 6.808500 3.435000 15.120900 3.057100 -1.215500 1.046700 0.172200 -6.188400 -5.861100 0.000000 -0.000000 -2.068100 -11.480700 2.015800 15.825200 5.988900 -3.420100 -17.505600 2.978400 0.135000 -4.544600 0.000000 -0.000000 
0.006361 0.727205 0.154678 -1.955000 3.785900 -2.819600 4.095900 3.600300 4.032300 2.005400 0.029600 -1.770100 1.931700 0.014700 -1.730000 -0.591700 0.642900 0.960600 -0.000000 0.000000 -0.000000 -3.925000 1.194300 -2.404300 -13.374100 1.922900 -5.913900 -68.824600 16.632900 11.773500 0.000000 0.000000 -9.642400 -19.232800 1.434000 7.327200 4.641700 10.699300 10.557100 5.664400 2.689400 -5.066500 25.232599 -1.233700 -10.055200 -23.349701 0.001600 -0.528300 -11.952600 0.000300 -0.003100 -13.952600 0.000400 -0.003600 -13.562900 0.000500 -8.704700 -15.229500 0.000500 -0.003900 -15.229500 0.000500 -0.004000 -24.371000 0.001700 2.159800 -19.431700 0.000900 -0.005000 -21.427401 0.001000 -0.005500 -31.064899 -0.321800 3.701600 -17.768400 0.000700 -0.004600 -17.768299 0.000700 -0.004600 13.607200 1.942400 5.911300 33.617001 22.708401 27.459000 0.000000 0.000000 34.452202 13.763700 -5.622400 4.335300 1.885200 18.796000 -12.609500 -5.124000 -0.389400 -1.250900 -16.937901 -17.797600 -0.367000 21.320101 0.000600 8.987700 23.716499 0.000700 0.003200 10.417800 0.000100 0.001400 21.655199 0.000700 4.287300 35.569801 0.001500 0.004600 20.751699 0.000500 0.002800 24.281099 0.000800 2.697000 47.580898 0.002600 0.005900 23.261200 0.000600 0.003100 28.762400 -0.650400 3.817400 28.797800 0.001000 0.003800 15.981300 0.000300 0.002200 -37.820900 4.550700 4.104300 9.418600 3.857700 2.184600 -3.424600 0.412700 -6.959500 -7.682300 0.000000 -0.000000 0.362800 -12.625800 2.340000 18.076200 3.271400 -2.839300 -21.067301 7.962700 1.486200 -5.030800 0.000000 -0.000000 
